# WaveFront *.obj file (generated by CINEMA 4D)

mtllib ./yuanpan.mtl

v 0 0 -0.80000001192093
v 0 0 0.80000001192093
v 3.46410155296326 0 -0.40000000596046
v 1.73205077648163 3 -0.40000000596046
v -1.73205077648163 3 -0.40000000596046
v -3.46410155296326 0 -0.40000000596046
v -1.73205077648163 -3 -0.40000000596046
v 1.73205077648163 -3 -0.40000000596046
v 3.46410155296326 0 0.40000000596046
v 1.73205077648163 3 0.40000000596046
v -1.73205077648163 3 0.40000000596046
v -3.46410155296326 0 0.40000000596046
v -1.73205077648163 -3 0.40000000596046
v 1.73205077648163 -3 0.40000000596046
# 14 vertices

vn 0.86602538824081 0.49999997019768 0
vn 0.86602538824081 0.49999997019768 0
vn 0 0 0
vn 0 1 0
vn 0 1 0
vn -0.86602538824081 0.49999997019768 0
vn -0.86602538824081 -0.49999997019768 0
vn 0 -1 0
vn 0.86602538824081 -0.49999997019768 0
vn 0 0.00000000250551 -1
vn 0.11470787227154 0 -0.99339926242828
vn 0.05735393613577 0.09933993220329 -0.99339926242828
vn 0.05735393613577 0.09933993220329 0.99339926242828
vn 0.11470787227154 0 0.99339926242828
vn 0 -0.00000000125275 1
vn -0.05735393613577 0.09933993220329 -0.99339926242828
vn -0.05735393613577 0.09933993220329 0.99339926242828
vn -0.11470787227154 0 -0.99339926242828
vn -0.11470787227154 0 0.99339926242828
vn -0.05735393613577 -0.09933993220329 -0.99339926242828
vn -0.05735393613577 -0.09933993220329 0.99339926242828
vn 0.05735393613577 -0.09933993220329 -0.99339926242828
vn 0.05735393613577 -0.09933993220329 0.99339926242828
# 23 normals

vt 0 0.33333337306976 0
vt 0 0.66666668653488 0
vt 0.16666665673256 0.66666668653488 0
vt 0 1 0
vt 0.16666665673256 0.33333337306976 0
vt 0.33333331346512 0.66666668653488 0
vt 0.33333331346512 0.33333337306976 0
vt 0.5 0.66666668653488 0
vt 0.5 0.33333337306976 0
vt 0.66666662693024 0.66666668653488 0
vt 0.66666662693024 0.33333337306976 0
vt 0.83333337306976 0.66666668653488 0
vt 0.83333337306976 0.33333337306976 0
vt 1 0.66666668653488 0
vt 0 0 0
vt 0.16666667163372 0 0
vt 0.16666667163372 1 0
vt 0.33333334326744 0 0
vt 0.33333334326744 1 0
vt 0.5 0 0
vt 0.5 1 0
vt 0.66666668653488 0 0
vt 0.66666668653488 1 0
vt 0.83333331346512 0 0
vt 1 0.33333337306976 0
vt 0.83333331346512 1 0
# 26 texture coordinates

o çƒä½“
usemtl default
f 10/3/1 9/2/2 3/1/1
f 11/6/4 10/3/5 4/5/4
f 12/8/6 11/6/6 5/7/6
f 13/10/7 12/8/7 6/9/7
f 14/12/8 13/10/8 7/11/8
f 9/14/9 14/12/9 8/13/9
f 4/5/12 3/1/11 1/15/10
f 2/4/15 9/2/14 10/3/13
f 5/7/16 4/5/12 1/16/10
f 2/17/15 10/3/13 11/6/17
f 6/9/18 5/7/16 1/18/10
f 2/19/15 11/6/17 12/8/19
f 7/11/20 6/9/18 1/20/10
f 2/21/15 12/8/19 13/10/21
f 8/13/22 7/11/20 1/22/10
f 2/23/15 13/10/21 14/12/23
f 3/25/11 8/13/22 1/24/10
f 2/26/15 14/12/23 9/14/14
f 4/5/1 10/3/1 3/1/1
f 5/7/4 11/6/4 4/5/4
f 6/9/6 12/8/6 5/7/6
f 7/11/7 13/10/7 6/9/7
f 8/13/8 14/12/8 7/11/8
f 3/25/9 9/14/9 8/13/9

